<svg width="24" height="24" viewBox="0 0 24 24" fill="none" xmlns="http://www.w3.org/2000/svg">
<path fill-rule="evenodd" clip-rule="evenodd" d="M17.8704 16.5C17.9541 17.294 18 18.1521 18 19C19.5 19 21 21 21 21C21 21 20.9799 19.7292 20.7 19C20.2598 17.8535 19.2183 16.6935 17.8704 16.5Z" stroke="black" stroke-width="1.5" stroke-linecap="round" stroke-linejoin="round"/>
<path fill-rule="evenodd" clip-rule="evenodd" d="M6.13089 16.5C4.7595 16.6758 3.75361 17.8185 3.3 19C3.02005 19.7291 3 21 3 21C3 21 4.5 19 6 19C6 18.1478 6.04634 17.2978 6.13089 16.5Z" stroke="black" stroke-width="1.5" stroke-linecap="round" stroke-linejoin="round"/>
<path d="M12.1245 15C13.2291 15 14.1245 14.1046 14.1245 13C14.1245 11.8954 13.2291 11 12.1245 11C11.0199 11 10.1245 11.8954 10.1245 13C10.1245 14.1046 11.0199 15 12.1245 15Z" stroke="black" stroke-width="1.5"/>
<path d="M6 19H18C18 9.30303 12 3 12 3C12 3 6 9.30303 6 19Z" stroke="black" stroke-width="1.5"/>
<path d="M12 18V21" stroke="black" stroke-width="1.5" stroke-linecap="round"/>
<path fill-rule="evenodd" clip-rule="evenodd" d="M14.8392 7.06937C14.6703 7.20709 14.4199 7.39149 14.0552 7.55617C13.5832 7.76921 12.9179 7.95 11.9892 7.95C11.0605 7.95 10.4006 7.76921 9.9342 7.55626C9.5739 7.39175 9.32784 7.20759 9.16052 7.0698C10.6052 4.46529 12 3 12 3C12 3 13.3947 4.46513 14.8392 7.06937Z" stroke="black" stroke-width="1.5"/>
</svg>
