<svg xmlns="http://www.w3.org/2000/svg" width="24" height="24" viewBox="0 0 24 24" fill="#1DB954">
  <circle cx="12" cy="12" r="12" fill="#1DB954"/>
  <path d="M17.9 10.9c-3.8-2.2-10-2.4-13.6-1.3-.6.2-.9.8-.7 1.4.2.6.8.9 1.4.7 3.2-1 8.9-.8 12.3 1.1.5.3 1.2.1 1.5-.4.3-.5.1-1.2-.4-1.5-.1 0-.1 0-.1 0zm-1.2 2.7c-.3.4-.9.6-1.3.3-2.9-1.8-7.3-2.3-10.7-1.3-.5.2-1-.2-1.2-.7-.2-.5.2-1 .7-1.2 3.9-1.2 8.8-.6 12.1 1.4.4.3.6.9.3 1.3l.1.2zm-1.3 2.6c-.2.3-.7.4-1 .2-2.5-1.5-5.7-1.9-9.4-1-.4.1-.8-.2-.9-.6s.2-.8.6-.9c4.1-1 7.7-.6 10.6 1.2.3.2.4.7.2 1l-.1.1z" fill="white"/>
</svg> 